HIERARCHY
ROOT Hips
{
  OFFSET -23.7486 99.2819 59.2069
  CHANNELS 6 Xposition Yposition Zposition Zrotation Xrotation Yrotation
  JOINT ToSpine
  {
    OFFSET -0.0105055 1.38907 -7.13956
    CHANNELS 3 Zrotation Xrotation Yrotation
    JOINT Spine
    {
      OFFSET 0.0105055 10 1
      CHANNELS 3 Zrotation Xrotation Yrotation
      JOINT Spine1
      {
        OFFSET 0 12 1.60637
        CHANNELS 3 Zrotation Xrotation Yrotation
        JOINT Neck
        {
          OFFSET 0 27 2.26658
          CHANNELS 3 Zrotation Xrotation Yrotation
          JOINT Head
          {
            OFFSET 0 9 2.12705
            CHANNELS 3 Zrotation Xrotation Yrotation
            End Site
            {
              OFFSET 0 11 2
            }
          }
        }
        JOINT LeftShoulder
        {
          OFFSET 8 19.6109 2.86452
          CHANNELS 3 Zrotation Xrotation Yrotation
          JOINT LeftArm
          {
            OFFSET 12 1 0.681055
            CHANNELS 3 Zrotation Xrotation Yrotation
            JOINT LeftForeArm
            {
              OFFSET 19 0 -1.52608
              CHANNELS 3 Zrotation Xrotation Yrotation
              JOINT LeftHand
              {
                OFFSET 23 0 0
                CHANNELS 3 Zrotation Xrotation Yrotation
                End Site
                {
                  OFFSET 10 0 0
                }
              }
            }
          }
        }
        JOINT RightShoulder
        {
          OFFSET -8 19.6109 2.86452
          CHANNELS 3 Zrotation Xrotation Yrotation
          JOINT RightArm
          {
            OFFSET -12 1 0.681055
            CHANNELS 3 Zrotation Xrotation Yrotation
            JOINT RightForeArm
            {
              OFFSET -19 0 -1.52608
              CHANNELS 3 Zrotation Xrotation Yrotation
              JOINT RightHand
              {
                OFFSET -23 0 0
                CHANNELS 3 Zrotation Xrotation Yrotation
                End Site
                {
                  OFFSET -10 0 0
                }
              }
            }
          }
        }
      }
    }
  }
  JOINT LeftUpLeg
  {
    OFFSET 9 -7.17245 0
    CHANNELS 3 Zrotation Xrotation Yrotation
    JOINT LeftLeg
    {
      OFFSET 0 -44.1113 0
      CHANNELS 3 Zrotation Xrotation Yrotation
      JOINT LeftFoot
      {
        OFFSET 0 -36.1829 0
        CHANNELS 3 Zrotation Xrotation Yrotation
        JOINT LeftToeBase
        {
          OFFSET 0 -4.84184 13
          CHANNELS 3 Zrotation Xrotation Yrotation
          End Site
          {
            OFFSET 0 1 6
          }
        }
      }
    }
  }
  JOINT RightUpLeg
  {
    OFFSET -9 -7.17245 0
    CHANNELS 3 Zrotation Xrotation Yrotation
    JOINT RightLeg
    {
      OFFSET 0 -44.0551 0
      CHANNELS 3 Zrotation Xrotation Yrotation
      JOINT RightFoot
      {
        OFFSET 0 -36.1469 0
        CHANNELS 3 Zrotation Xrotation Yrotation
        JOINT RightToeBase
        {
          OFFSET 0 -4.92256 13
          CHANNELS 3 Zrotation Xrotation Yrotation
          End Site
          {
            OFFSET 0 1 6
          }
        }
      }
    }
  }
}
MOTION
Frames:	12
Frame Time:	0.0333333
-23.7432 99.2819 59.2177 6.7975 3.69194 118.765 0 0 0 2.65586 -1.9175 0.493125 -5.06399 9.3888 1.29353 11.861 14.7414 -8.65136 -4.53145 -0.90707 -2.82748 -30.8296 3.86253 -6.9448 -35.753 0.777799 -19.4127 -47.0063 -32.3779 -63.4692 -13.1404 -0.692319 6.00488 24.9185 6.2123 16.2769 32.8739 12.2943 29.4772 33.2497 -33.7572 49.717 6.29049 -0.0140692 -0.26075 -1.68809 6.52162 7.04039 -0.667416 7.37106 -0.911147 1.26339 -9.88565 0.1103 -0.689504 7.44218 0.705255 -2.12835 5.9854 -6.86734 -0.117426 7.51875 9.23385 -10.8062 -2.00598 -0.18968 3.33068 -12.1495 -4.38265 
-23.7604 99.2819 59.1822 6.64428 3.63014 119.146 0 0 0 2.61969 -1.9816 0.529924 -4.77128 9.36513 1.27194 10.8735 15.0483 -6.11022 -4.70159 -0.656361 -0.577429 -31.3304 3.9131 -6.94038 -35.4148 1.16572 -19.7559 -45.9817 -32.3382 -62.6659 -13.1783 -0.620961 5.3742 24.5242 6.10711 16.1815 33.3158 11.8312 29.2972 31.685 -32.7075 48.8007 7.03284 -0.04545 -0.72346 -1.69637 6.4185 6.93409 -0.675154 7.09741 -0.897339 2.03623 -9.08007 0.157186 -0.252234 5.63995 -0.335156 -2.20753 5.78736 -7.05112 0.0189035 7.71783 9.19194 -10.6589 -2.22596 -0.207999 3.31425 -12.0535 -4.73308 
-23.7881 99.2826 59.1595 6.5559 3.62953 119.731 0 0 0 2.64353 -1.58222 0.562081 -4.68181 8.9285 1.27672 9.84309 15.0228 -3.10132 -4.61223 0.15238 2.06544 -31.7357 3.97332 -6.98812 -35.1863 1.38086 -20.037 -45.8202 -32.406 -62.4901 -12.7496 -0.589975 5.27498 24.4587 6.12669 16.2823 33.6637 10.8751 28.6314 29.7301 -31.1191 47.8557 8.12078 -0.0797738 -1.14014 -1.58477 6.28885 7.03639 -0.876826 7.11162 -1.50994 2.30802 -9.02806 0.181868 -0.283952 5.47537 -0.203184 -2.25771 5.71156 -7.17499 0.0792075 7.91622 8.81376 -10.2483 -2.59927 -0.23278 3.25044 -11.756 -4.90587 
-23.8675 99.2774 59.0987 6.49375 3.61552 120.414 0 0 0 3.08348 -0.949339 0.536515 -5.19871 8.28826 1.3648 9.82802 14.8043 -1.1736 -5.15005 0.525682 4.13804 -31.4839 3.99488 -7.11505 -35.7829 1.60694 -20.2361 -45.6468 -32.4695 -62.3066 -11.9465 -0.437637 4.16851 24.7933 6.25928 16.4994 33.5679 10.5709 27.7619 31.3925 -31.7975 49.1899 7.53087 -0.0410201 -0.562907 -1.48352 6.16841 7.10667 -1.08272 7.08291 -2.28232 2.73328 -8.5884 0.197679 -0.272663 4.41118 0.0283162 -2.36266 5.61839 -7.39769 0.183143 8.19024 8.51761 -9.43352 -3.03709 -0.250433 3.10429 -11.0957 -5.09917 
-23.9332 99.2577 58.9484 6.15264 3.49872 121.032 0 0 0 3.34705 -0.916851 0.575073 -5.39242 8.01838 1.46272 9.74918 14.4571 0.230721 -5.72356 0.740191 5.64208 -31.5279 4.01296 -7.15041 -36.3625 1.83251 -20.4674 -45.1066 -32.4906 -61.8458 -11.6158 -0.386151 3.79932 24.9103 6.2545 16.4138 33.4007 10.6136 27.2825 32.9718 -32.6611 50.2426 6.69314 -0.00632111 -0.120821 -1.63351 5.89426 6.88279 -1.13893 6.70147 -2.37722 3.91059 -7.30727 0.252019 0.0993241 1.42533 -0.779308 -2.59606 5.25151 -7.71301 0.381043 8.44713 8.26969 -9.251 -3.31625 -0.268521 3.06486 -10.8923 -5.27915 
-23.9059 99.2398 58.79 5.86894 3.38666 121.549 0 0 0 3.36883 -1.19321 0.71061 -5.2356 8.19441 1.551 9.15049 14.016 1.48566 -5.82648 0.833697 6.65354 -31.9532 4.01838 -7.04625 -36.6343 2.04039 -20.9397 -44.4987 -32.5525 -61.2962 -11.4508 -0.408546 4.0806 24.8074 6.19938 16.3029 33.3209 9.9376 27.0373 32.0211 -32.1043 49.6414 7.4491 -0.0300449 -0.47128 -1.68629 5.54012 6.80699 -1.16491 6.86444 -2.74855 3.84387 -7.69044 0.258189 0.0711417 2.04807 -0.796898 -2.67843 5.07706 -7.74722 0.365307 8.40292 7.45672 -9.11498 -3.22786 -0.257771 3.16016 -11.4129 -4.44737 
-23.8764 99.2501 58.5587 5.87026 3.43226 122.146 0 0 0 3.4493 -1.24563 0.773607 -5.12682 8.5408 1.59891 8.48374 13.6237 2.39926 -5.52949 0.746769 7.19772 -32.0638 4.00333 -6.97645 -36.9768 2.42222 -21.6827 -44.2567 -32.965 -60.8197 -12.2482 -0.496206 4.58796 24.6962 6.2485 16.5239 33.1715 9.61312 26.6486 32.8212 -32.5571 50.1601 7.03227 0.00953285 0.224608 -1.77176 5.67821 6.7232 -1.15361 6.74515 -3.13601 3.84105 -7.68304 0.257751 0.19966 2.34385 -1.35386 -2.765 5.3239 -7.87198 0.257074 8.3062 6.8854 -8.39666 -3.35528 -0.245769 3.12268 -11.312 -3.79962 
-23.8589 99.2569 58.2394 5.7484 3.45796 122.653 0 0 0 3.76604 -1.25644 0.813988 -5.4438 8.61631 1.7234 8.10744 13.1936 2.93255 -5.21595 0.832149 7.47943 -31.995 3.97538 -6.92247 -37.1412 2.88422 -22.2295 -44.2959 -33.351 -60.601 -12.7801 -0.562726 5.02439 24.7707 6.29478 16.6245 33.2336 9.18689 26.1913 32.3937 -32.2101 49.9658 6.77091 0.0462803 0.78252 -1.90698 5.79822 6.7081 -1.36826 6.4772 -3.66526 4.42387 -7.36209 0.284913 0.18179 1.75495 -1.16727 -2.94019 5.46032 -8.02348 0.129753 8.2613 6.59717 -7.65851 -3.70447 -0.24811 3.01476 -10.8595 -3.79265 
-23.8352 99.2492 57.8857 5.56311 3.4847 123.392 0 0 0 4.03985 -1.20539 0.7446 -5.81097 8.41958 1.73737 7.8917 12.823 3.23438 -4.91626 1.14325 7.60801 -31.8901 3.96949 -6.93571 -37.2112 3.37565 -22.611 -44.1671 -33.7002 -60.2642 -12.5181 -0.529428 4.82499 24.8061 6.2341 16.4124 33.4179 8.59696 26.0407 31.107 -31.4201 49.1748 7.77713 0.0314054 0.459361 -2.06822 5.86969 6.64347 -1.53317 6.27675 -4.4032 4.48968 -7.51089 0.294563 0.083074 1.77075 -0.772065 -3.18735 5.69649 -8.34081 0.266019 8.05239 6.38636 -7.8068 -3.77898 -0.257944 3.03189 -10.8536 -4.43283 
-23.7575 99.2278 57.4495 5.3808 3.53704 124.161 0 0 0 4.11242 -1.41787 0.689699 -5.84705 8.51449 1.68045 7.49155 12.7105 3.41382 -4.73776 1.1696 7.57801 -31.8815 3.9771 -6.95792 -37.496 3.64568 -23.0032 -43.7107 -34.0603 -59.6358 -12.6635 -0.49649 4.47083 24.734 6.20675 16.3702 33.3421 8.22285 25.7789 30.7008 -31.0766 48.9987 8.4108 0.00554599 0.0397373 -2.36246 5.89371 6.38883 -1.42309 6.33835 -4.83493 4.21014 -8.00119 0.294769 0.188982 3.34077 -1.52943 -3.46503 6.17579 -8.714 0.429861 7.44649 5.93948 -8.17263 -3.56093 -0.25469 3.11944 -11.2365 -4.41279 
-23.6835 99.2242 56.9233 5.17444 3.51302 124.82 0 0 0 4.24907 -1.77574 0.668626 -5.74648 8.70434 1.63194 6.86694 12.7332 3.57869 -4.4464 1.01529 7.42164 -32.1469 3.98081 -6.8954 -37.6244 3.74206 -23.3423 -43.1592 -33.9817 -59.203 -12.5919 -0.487554 4.41646 24.4344 6.16038 16.4044 33.3323 8.85756 25.57 35.1636 -33.6575 51.8069 5.96882 0.0169005 0.574573 -2.68535 5.97444 6.14201 -1.39571 6.22057 -5.12774 4.46945 -8.17413 0.319232 0.216601 3.3496 -1.63147 -3.71611 6.46026 -8.99718 0.449127 7.17089 5.97183 -8.02044 -3.75556 -0.263397 3.09555 -11.0427 -5.36959 
-23.5842 99.1999 56.3963 4.96643 3.49007 125.377 0 0 0 4.38167 -2.03677 0.668007 -5.76952 8.76949 1.62852 6.67419 12.5834 3.54221 -4.43062 1.02598 7.2935 -31.9978 3.96416 -6.89256 -37.8761 4.11668 -23.4183 -43.0827 -33.747 -59.2893 -12.1898 -0.51744 4.84434 24.158 6.09735 16.3723 33.725 8.76336 25.2249 36.7723 -34.2197 53.0389 5.13746 0.0394495 0.934714 -2.96815 6.1247 5.99268 -1.49408 6.01891 -5.54102 4.94421 -8.13283 0.351733 0.10128 2.2552 -0.952934 -3.97022 6.69025 -9.18724 0.313396 7.05388 5.75888 -7.17793 -4.17593 -0.262073 2.99565 -10.5518 -5.49807 
